# xmcd CD database file
#
# Track frame offsets:
#	150
#	14105
#	34622
#	50438
#	68727
#	88877
#	103385
#	122472
#	141720
#	159495
#
# Disc length: 2363 seconds
#
# Revision: 0
# Processed by: cddbd v1.5.2PL0 Copyright (c) Steve Scherf et al.
# Submitted via: CDex 1.79
#
DISCID=9009390a
DTITLE=Josh Ward - Promises
DYEAR=2012
DGENRE=Country
TTITLE0=Rainout Hangout
TTITLE1=Lights Of Town
TTITLE2=Pony Town
TTITLE3=Beginning To End
TTITLE4=Lonely
TTITLE5=Getaway
TTITLE6=Hard Whiskey
TTITLE7=No Longer Mine
TTITLE8=Promises
TTITLE9=Sent Me You
EXTD=YEAR: 2012
EXTT0=
EXTT1=
EXTT2=
EXTT3=
EXTT4=
EXTT5=
EXTT6=
EXTT7=
EXTT8=
EXTT9=
PLAYORDER=
